<mxfile host="app.diagrams.net" modified="2021-05-11T01:35:17.184Z" agent="5.0 (Windows NT 10.0; Win64; x64) AppleWebKit/537.36 (KHTML, like Gecko) Chrome/90.0.4430.212 Safari/537.36" etag="3puXE9AF6FuFFOTJEJ3n" version="14.6.11" type="github">
  <diagram id="2Ls-E_GWezNvqA9jqsLb" name="Page-1">
    <mxGraphModel dx="2235" dy="1894" grid="1" gridSize="10" guides="1" tooltips="1" connect="1" arrows="1" fold="1" page="1" pageScale="1" pageWidth="850" pageHeight="1100" math="0" shadow="0">
      <root>
        <mxCell id="0" />
        <mxCell id="1" parent="0" />
        <mxCell id="mhgu-7D5S25DHFSiCcay-1" value="" style="strokeWidth=1;shadow=0;dashed=0;align=center;html=1;shape=mxgraph.mockup.containers.browserWindow;rSize=0;strokeColor=#666666;strokeColor2=#008cff;strokeColor3=#c4c4c4;mainText=,;recursiveResize=0;" vertex="1" parent="1">
          <mxGeometry x="-40" y="-30" width="670" height="760" as="geometry" />
        </mxCell>
        <mxCell id="mhgu-7D5S25DHFSiCcay-2" value="Page 1" style="strokeWidth=1;shadow=0;dashed=0;align=center;html=1;shape=mxgraph.mockup.containers.anchor;fontSize=17;fontColor=#666666;align=left;" vertex="1" parent="mhgu-7D5S25DHFSiCcay-1">
          <mxGeometry x="60" y="12" width="110" height="26" as="geometry" />
        </mxCell>
        <mxCell id="mhgu-7D5S25DHFSiCcay-3" value="https://www.draw.io" style="strokeWidth=1;shadow=0;dashed=0;align=center;html=1;shape=mxgraph.mockup.containers.anchor;rSize=0;fontSize=17;fontColor=#666666;align=left;" vertex="1" parent="mhgu-7D5S25DHFSiCcay-1">
          <mxGeometry x="130" y="60" width="250" height="26" as="geometry" />
        </mxCell>
        <mxCell id="mhgu-7D5S25DHFSiCcay-8" style="edgeStyle=orthogonalEdgeStyle;rounded=0;orthogonalLoop=1;jettySize=auto;html=1;exitX=1;exitY=0.5;exitDx=0;exitDy=0;" edge="1" parent="mhgu-7D5S25DHFSiCcay-1" source="mhgu-7D5S25DHFSiCcay-5" target="mhgu-7D5S25DHFSiCcay-1">
          <mxGeometry relative="1" as="geometry">
            <Array as="points">
              <mxPoint x="400" y="80" />
              <mxPoint x="400" y="80" />
            </Array>
          </mxGeometry>
        </mxCell>
        <mxCell id="mhgu-7D5S25DHFSiCcay-5" value="" style="rounded=0;whiteSpace=wrap;html=1;" vertex="1" parent="mhgu-7D5S25DHFSiCcay-1">
          <mxGeometry x="20" y="130" width="640" height="130" as="geometry" />
        </mxCell>
        <mxCell id="mhgu-7D5S25DHFSiCcay-6" value="Text" style="text;html=1;strokeColor=none;fillColor=none;align=center;verticalAlign=middle;whiteSpace=wrap;rounded=0;" vertex="1" parent="mhgu-7D5S25DHFSiCcay-1">
          <mxGeometry x="380" y="640" width="40" height="20" as="geometry" />
        </mxCell>
        <mxCell id="mhgu-7D5S25DHFSiCcay-9" value="" style="rounded=0;whiteSpace=wrap;html=1;" vertex="1" parent="mhgu-7D5S25DHFSiCcay-1">
          <mxGeometry x="20" y="270" width="210" height="140" as="geometry" />
        </mxCell>
        <mxCell id="mhgu-7D5S25DHFSiCcay-10" value="" style="verticalLabelPosition=bottom;shadow=0;dashed=0;align=center;html=1;verticalAlign=top;strokeWidth=1;shape=mxgraph.mockup.containers.userMale;strokeColor=#666666;strokeColor2=#008cff;" vertex="1" parent="mhgu-7D5S25DHFSiCcay-1">
          <mxGeometry x="75" y="290" width="100" height="100" as="geometry" />
        </mxCell>
        <mxCell id="mhgu-7D5S25DHFSiCcay-11" value="" style="rounded=0;whiteSpace=wrap;html=1;" vertex="1" parent="mhgu-7D5S25DHFSiCcay-1">
          <mxGeometry x="240" y="270" width="420" height="140" as="geometry" />
        </mxCell>
        <mxCell id="mhgu-7D5S25DHFSiCcay-13" style="edgeStyle=orthogonalEdgeStyle;rounded=0;orthogonalLoop=1;jettySize=auto;html=1;exitX=0.5;exitY=1;exitDx=0;exitDy=0;" edge="1" parent="mhgu-7D5S25DHFSiCcay-1" source="mhgu-7D5S25DHFSiCcay-9" target="mhgu-7D5S25DHFSiCcay-9">
          <mxGeometry relative="1" as="geometry" />
        </mxCell>
        <mxCell id="mhgu-7D5S25DHFSiCcay-14" value="" style="rounded=0;whiteSpace=wrap;html=1;" vertex="1" parent="mhgu-7D5S25DHFSiCcay-1">
          <mxGeometry x="20" y="420" width="210" height="140" as="geometry" />
        </mxCell>
        <mxCell id="mhgu-7D5S25DHFSiCcay-15" value="" style="rounded=0;whiteSpace=wrap;html=1;" vertex="1" parent="mhgu-7D5S25DHFSiCcay-1">
          <mxGeometry x="240" y="420" width="270" height="140" as="geometry" />
        </mxCell>
        <mxCell id="mhgu-7D5S25DHFSiCcay-16" value="" style="whiteSpace=wrap;html=1;aspect=fixed;" vertex="1" parent="mhgu-7D5S25DHFSiCcay-1">
          <mxGeometry x="520" y="420" width="140" height="140" as="geometry" />
        </mxCell>
        <mxCell id="mhgu-7D5S25DHFSiCcay-17" value="" style="rounded=0;whiteSpace=wrap;html=1;" vertex="1" parent="mhgu-7D5S25DHFSiCcay-1">
          <mxGeometry x="20" y="570" width="640" height="120" as="geometry" />
        </mxCell>
        <mxCell id="mhgu-7D5S25DHFSiCcay-18" value="" style="rounded=0;whiteSpace=wrap;html=1;" vertex="1" parent="mhgu-7D5S25DHFSiCcay-1">
          <mxGeometry x="20" y="700" width="640" height="50" as="geometry" />
        </mxCell>
        <mxCell id="mhgu-7D5S25DHFSiCcay-20" value="Text" style="text;html=1;strokeColor=none;fillColor=none;align=center;verticalAlign=middle;whiteSpace=wrap;rounded=0;" vertex="1" parent="mhgu-7D5S25DHFSiCcay-1">
          <mxGeometry x="380" y="715" width="40" height="20" as="geometry" />
        </mxCell>
        <mxCell id="mhgu-7D5S25DHFSiCcay-21" value="jelnfvjdedcisek sm vsjk mkxcv,db/v kldrdm&amp;nbsp; r k, xn" style="text;html=1;strokeColor=none;fillColor=none;align=center;verticalAlign=middle;whiteSpace=wrap;rounded=0;" vertex="1" parent="mhgu-7D5S25DHFSiCcay-1">
          <mxGeometry x="310" y="620" width="100" height="60" as="geometry" />
        </mxCell>
        <mxCell id="mhgu-7D5S25DHFSiCcay-22" value="Text" style="text;html=1;strokeColor=none;fillColor=none;align=center;verticalAlign=middle;whiteSpace=wrap;rounded=0;" vertex="1" parent="mhgu-7D5S25DHFSiCcay-1">
          <mxGeometry x="90" y="480" width="40" height="20" as="geometry" />
        </mxCell>
        <mxCell id="mhgu-7D5S25DHFSiCcay-23" value="Text" style="text;html=1;strokeColor=none;fillColor=none;align=center;verticalAlign=middle;whiteSpace=wrap;rounded=0;" vertex="1" parent="mhgu-7D5S25DHFSiCcay-1">
          <mxGeometry x="297.5" y="172.5" width="85" height="45" as="geometry" />
        </mxCell>
        <mxCell id="mhgu-7D5S25DHFSiCcay-24" value="Text" style="text;html=1;strokeColor=none;fillColor=none;align=center;verticalAlign=middle;whiteSpace=wrap;rounded=0;" vertex="1" parent="mhgu-7D5S25DHFSiCcay-1">
          <mxGeometry x="430" y="330" width="40" height="20" as="geometry" />
        </mxCell>
        <mxCell id="mhgu-7D5S25DHFSiCcay-29" value="" style="verticalLabelPosition=bottom;shadow=0;dashed=0;align=center;html=1;verticalAlign=top;strokeWidth=1;shape=mxgraph.mockup.containers.userMale;strokeColor=#666666;strokeColor2=#008cff;" vertex="1" parent="mhgu-7D5S25DHFSiCcay-1">
          <mxGeometry x="540" y="440" width="100" height="100" as="geometry" />
        </mxCell>
        <mxCell id="mhgu-7D5S25DHFSiCcay-35" value="" style="verticalLabelPosition=bottom;shadow=0;dashed=0;align=center;html=1;verticalAlign=top;strokeWidth=1;shape=mxgraph.mockup.containers.videoPlayer;strokeColor=#666666;strokeColor2=#008cff;strokeColor3=#c4c4c4;textColor=#666666;fillColor2=#008cff;barHeight=30;barPos=20;" vertex="1" parent="mhgu-7D5S25DHFSiCcay-1">
          <mxGeometry x="260" y="440" width="230" height="110" as="geometry" />
        </mxCell>
      </root>
    </mxGraphModel>
  </diagram>
</mxfile>
